<?xml version="1.0" encoding="UTF-8"?>
<!DOCTYPE svg PUBLIC "-//W3C//DTD SVG 1.1//EN" "http://www.w3.org/Graphics/SVG/1.1/DTD/svg11.dtd">
<!-- Creator: CorelDRAW X8 -->
<svg xmlns="http://www.w3.org/2000/svg" xml:space="preserve" width="210mm" height="210mm" version="1.1" style="shape-rendering:geometricPrecision; text-rendering:geometricPrecision; image-rendering:optimizeQuality; fill-rule:evenodd; clip-rule:evenodd"
viewBox="0 0 21000 21000"
 xmlns:xlink="http://www.w3.org/1999/xlink">
 <defs>
  <style type="text/css">
   <![CDATA[
    .fil0 {fill:black}
    .fil1 {fill:white}
   ]]>
  </style>
 </defs>
 <g id="Слой_x0020_1">
  <metadata id="CorelCorpID_0Corel-Layer"/>
  <path class="fil0" d="M20492 17315c0,1514 -1227,2741 -2742,2741l-14256 0c-1513,0 -2741,-1227 -2741,-2741l0 -14256c0,-1515 1228,-2742 2741,-2742l14256 0c1515,0 2742,1227 2742,2742l0 14256z"/>
  <path class="fil1" d="M15574 10994c-357,-494 -872,-834 -1536,-1015 0,0 560,-202 1064,-959 302,-483 455,-1064 455,-1744 0,-1179 -427,-2083 -1283,-2703 -855,-619 -1820,-1036 -3460,-1036l-5126 0 0 13159 5719 0c1551,-11 2719,-345 3514,-987 790,-652 1185,-1617 1185,-2906 -1,-712 -176,-1316 -532,-1809zm-6597 -5264c0,0 2287,0 2331,0 833,0 1508,674 1508,1508 0,833 -675,1508 -1508,1508 -44,0 -2331,0 -2331,0l0 -3016zm2742 8773l-2742 0 0 -3290 2742 0c910,0 1645,735 1645,1645 0,910 -735,1645 -1645,1645z"/>
 </g>
</svg>
