<?xml version="1.0" encoding="UTF-8"?>
<!DOCTYPE svg PUBLIC "-//W3C//DTD SVG 1.1//EN" "http://www.w3.org/Graphics/SVG/1.1/DTD/svg11.dtd">
<!-- Creator: CorelDRAW X8 -->
<svg xmlns="http://www.w3.org/2000/svg" xml:space="preserve" width="210mm" height="210mm" version="1.1" style="shape-rendering:geometricPrecision; text-rendering:geometricPrecision; image-rendering:optimizeQuality; fill-rule:evenodd; clip-rule:evenodd"
viewBox="0 0 21000 21000"
 xmlns:xlink="http://www.w3.org/1999/xlink">
 <defs>
  <style type="text/css">
   <![CDATA[
    .str0 {stroke:#2B2A29;stroke-width:20}
    .fil0 {fill:#FEFEFE}
    .fil1 {fill:black}
   ]]>
  </style>
 </defs>
 <g id="Слой_x0020_1">
  <metadata id="CorelCorpID_0Corel-Layer"/>
  <rect class="fil0 str0" x="4780" y="3740" width="12259" height="12890"/>
 </g>
 <g id="Слой_x0020_1_0">
  <metadata id="CorelCorpID_1Corel-Layer"/>
  <g id="Layer_x0020_1">
   <path class="fil1" d="M17871 18167l1576 -17651 21 -232 -233 0 -17296 0 -233 0 21 232 1574 17654 13 147 142 39 7063 1961 114 0 7083 -1964 142 -39 13 -147 0 0zm-7269 -13978l5161 0 -155 1806 -5093 2265 87 406 4778 0 -550 6303 -4246 1178 -4244 -1176 -270 -3019 1748 0 140 1531 13 149 144 38 2432 646 111 0 2404 -669 143 -40 13 -148 240 -2826 19 -231 -231 0 -2644 0 -4675 0 -160 -1814 4918 -2105 349 -149 -83 -409 -349 0 -5059 0 -153 -1736 5189 0 23 0 0 0z"/>
  </g>
 </g>
</svg>
