<?xml version="1.0" encoding="UTF-8"?>
<!DOCTYPE svg PUBLIC "-//W3C//DTD SVG 1.1//EN" "http://www.w3.org/Graphics/SVG/1.1/DTD/svg11.dtd">
<!-- Creator: CorelDRAW X8 -->
<svg xmlns="http://www.w3.org/2000/svg" xml:space="preserve" width="210mm" height="210mm" version="1.1" style="shape-rendering:geometricPrecision; text-rendering:geometricPrecision; image-rendering:optimizeQuality; fill-rule:evenodd; clip-rule:evenodd"
viewBox="0 0 21000 21000"
 xmlns:xlink="http://www.w3.org/1999/xlink">
 <defs>
  <style type="text/css">
   <![CDATA[
    .str0 {stroke:#2B2A29;stroke-width:20}
    .fil0 {fill:#000000}
    .fil1 {fill:#FEFEFE}
   ]]>
  </style>
 </defs>
 <g id="Слой_x0020_1">
  <metadata id="CorelCorpID_0Corel-Layer"/>
  <rect class="fil0 str0" x="368" y="545" width="20201" height="19981" rx="3000" ry="3043"/>
 </g>
 <g id="Слой_x0020_1_0">
  <metadata id="CorelCorpID_1Corel-Layer"/>
  <g id="_2769670640896">
   <path class="fil1" d="M14693 2902c-1059,84 -1947,465 -2608,1121 -681,675 -1006,1499 -1006,2544 0,1564 641,2657 2073,3522 364,219 860,457 1718,827 1168,502 1603,740 1880,1037 342,367 437,953 222,1401 -42,87 -152,233 -250,331 -330,333 -852,510 -1499,510 -1093,0 -1908,-449 -2564,-1418 -90,-129 -171,-236 -182,-236 -25,0 -2158,1231 -2203,1273 -28,25 -5,84 104,263 852,1435 2183,2275 3982,2516 471,65 1353,62 1805,0 1132,-159 1981,-535 2639,-1174 701,-675 1045,-1549 1045,-2645 0,-701 -114,-1247 -375,-1788 -179,-370 -359,-619 -667,-933 -591,-600 -1356,-1054 -2883,-1709 -1155,-496 -1542,-709 -1797,-981 -243,-261 -347,-566 -325,-947 20,-303 104,-507 289,-706 266,-289 574,-410 1051,-407 541,0 891,140 1247,499 126,123 288,322 364,443 87,137 151,213 174,204 73,-31 2110,-1348 2110,-1367 0,-11 -104,-174 -230,-364 -269,-404 -754,-908 -1087,-1130 -617,-409 -1275,-619 -2144,-683 -426,-34 -482,-34 -883,-3l0 0z"/>
   <path class="fil1" d="M5970 7993l-8 4955 -62 232c-81,306 -177,488 -345,656 -235,235 -538,333 -1042,336 -720,3 -1152,-302 -1653,-1160 -82,-134 -155,-244 -163,-241 -11,6 -518,311 -1126,678l-1107 673 84 168c501,1000 1370,1757 2415,2104 1104,367 2522,334 3562,-84 1247,-504 1978,-1546 2172,-3096 16,-157 28,-1908 28,-5204l0 -4968 -1373 0 -1371 0 -11 4951 0 0z"/>
  </g>
 </g>
</svg>
