<?xml version="1.0" encoding="UTF-8"?>
<!DOCTYPE svg PUBLIC "-//W3C//DTD SVG 1.1//EN" "http://www.w3.org/Graphics/SVG/1.1/DTD/svg11.dtd">
<!-- Creator: CorelDRAW X8 -->
<svg xmlns="http://www.w3.org/2000/svg" xml:space="preserve" width="210mm" height="210mm" version="1.1" style="shape-rendering:geometricPrecision; text-rendering:geometricPrecision; image-rendering:optimizeQuality; fill-rule:evenodd; clip-rule:evenodd"
viewBox="0 0 21000 21000"
 xmlns:xlink="http://www.w3.org/1999/xlink">
 <defs>
  <style type="text/css">
   <![CDATA[
    .str0 {stroke:#2B2A29;stroke-width:20}
    .fil1 {fill:#FEFEFE}
    .fil0 {fill:#000000}
   ]]>
  </style>
 </defs>
 <g id="Слой_x0020_1">
  <metadata id="CorelCorpID_0Corel-Layer"/>
  <rect class="fil0 str0" x="368" y="545" width="20201" height="19981" rx="3000" ry="3043"/>
  <g>
   <path class="fil1" d="M2192 7586l2982 0c876,7 1510,260 1904,757 393,497 523,1176 389,2036 -52,394 -167,780 -345,1158 -171,378 -408,720 -712,1024 -371,386 -768,631 -1191,735 -423,103 -861,155 -1313,155l-1336 0 -423 2115 -1547 0 1592 -7980 0 0 0 0zm1302 1269l-668 3339c45,7 89,11 134,11 51,0 104,0 155,0 713,7 1306,-63 1781,-212 475,-156 794,-697 957,-1625 134,-779 0,-1228 -400,-1346 -394,-119 -887,-175 -1481,-167 -89,7 -174,11 -256,11 -74,0 -152,0 -233,0l11 -11z"/>
  </g>
  <path class="fil1" d="M9230 5460l1535 0 -434 2126 1381 0c756,15 1320,171 1691,467 379,297 490,861 334,1692l-746 3706 -1558 0 713 -3539c74,-371 51,-634 -67,-790 -119,-156 -375,-234 -768,-234l-1236 -11 -912 4574 -1536 0 1603 -7991 0 0z"/>
  <g>
   <path class="fil1" d="M15387 7586l2982 0c876,7 1510,260 1904,757 393,497 523,1176 389,2036 -52,394 -167,780 -345,1158 -171,378 -408,720 -712,1024 -371,386 -768,631 -1191,735 -423,103 -861,155 -1313,155l-1336 0 -423 2115 -1547 0 1592 -7980 0 0 0 0zm1302 1269l-668 3339c44,7 89,11 133,11 52,0 104,0 156,0 713,7 1306,-63 1781,-212 475,-156 794,-697 957,-1625 134,-779 0,-1228 -400,-1346 -394,-119 -887,-175 -1481,-167 -89,7 -174,11 -256,11 -74,0 -152,0 -233,0l11 -11z"/>
  </g>
 </g>
</svg>
