<?xml version="1.0" encoding="UTF-8"?>
<!DOCTYPE svg PUBLIC "-//W3C//DTD SVG 1.1//EN" "http://www.w3.org/Graphics/SVG/1.1/DTD/svg11.dtd">
<!-- Creator: CorelDRAW X8 -->
<svg xmlns="http://www.w3.org/2000/svg" xml:space="preserve" width="210mm" height="210mm" version="1.1" style="shape-rendering:geometricPrecision; text-rendering:geometricPrecision; image-rendering:optimizeQuality; fill-rule:evenodd; clip-rule:evenodd"
viewBox="0 0 21000 21000"
 xmlns:xlink="http://www.w3.org/1999/xlink"
 enable-background="new 0 0 841.9 595.3">
 <defs>
  <style type="text/css">
   <![CDATA[
    .str0 {stroke:#2B2A29;stroke-width:20}
    .fil2 {fill:none}
    .fil0 {fill:#000000}
    .fil1 {fill:#FEFEFE}
   ]]>
  </style>
 </defs>
 <g id="Слой_x0020_1">
  <metadata id="CorelCorpID_0Corel-Layer"/>
  <rect class="fil0 str0" x="368" y="545" width="20201" height="19981" rx="3000" ry="3043"/>
 </g>
 <g id="Слой_x0020_1_0">
  <metadata id="CorelCorpID_1Corel-Layer"/>
  <g id="_2769665191280">
   <path class="fil1" d="M19927 10202c0,-1257 -1573,-2448 -3985,-3187 556,-2459 308,-4415 -781,-5041 -251,-147 -546,-217 -867,-217l0 862c178,0 321,35 440,100 527,303 755,1451 577,2927 -42,364 -112,747 -197,1138 -758,-186 -1586,-329 -2455,-422 -523,-716 -1064,-1365 -1609,-1933 1262,-1172 2444,-1813 3249,-1813l0 -862c0,0 0,0 0,0 -1064,0 -2455,758 -3863,2072 -1407,-1306 -2799,-2057 -3863,-2057l0 862c800,0 1987,637 3248,1801 -541,569 -1082,1214 -1597,1930 -874,93 -1702,236 -2458,425 -90,-386 -155,-761 -202,-1121 -181,-1477 42,-2626 564,-2931 117,-70 267,-101 445,-101l0 -862c0,0 0,0 0,0 -325,0 -618,70 -874,217 -1087,627 -1330,2580 -769,5030 -2406,743 -3971,1930 -3971,3183 0,1257 1573,2447 3987,3185 -557,2460 -310,4416 781,5043 251,147 544,217 869,217 1064,0 2456,-758 3863,-2073 1408,1307 2800,2057 3863,2057 324,0 619,-70 873,-217 1086,-626 1330,-2579 770,-5030 2397,-739 3962,-1930 3962,-3182zm-5033 -2580c-144,500 -321,1014 -522,1527 -158,-308 -326,-618 -507,-927 -178,-310 -368,-610 -557,-905 549,81 1079,181 1586,305zm-1772 4119c-300,521 -610,1017 -931,1476 -575,51 -1160,77 -1747,77 -585,0 -1169,-26 -1741,-73 -321,-460 -634,-951 -935,-1469 -294,-507 -561,-1020 -804,-1539 239,-518 510,-1036 800,-1543 302,-522 610,-1017 931,-1477 577,-50 1161,-77 1749,-77 583,0 1167,27 1739,74 321,460 634,950 936,1469 293,506 561,1020 805,1538 -244,519 -512,1037 -802,1544zm1250 -504c209,520 386,1037 533,1540 -507,124 -1040,227 -1592,310 189,-298 378,-605 556,-918 177,-309 345,-622 503,-932zm-3920 4127c-360,-372 -720,-786 -1076,-1237 349,15 704,26 1063,26 364,0 724,-8 1076,-26 -349,451 -709,865 -1063,1237zm-2877 -2277c-549,-83 -1079,-183 -1586,-306 144,-499 321,-1014 522,-1528 158,310 324,618 507,928 181,309 367,611 557,906zm2856 -8047c360,370 720,784 1076,1237 -349,-16 -704,-26 -1063,-26 -364,0 -724,7 -1076,26 349,-453 708,-867 1063,-1237zm-2861 2277c-189,298 -378,603 -557,916 -178,310 -344,619 -502,929 -209,-518 -386,-1037 -533,-1540 507,-119 1040,-224 1592,-305zm-3499 4841c-1368,-584 -2254,-1350 -2254,-1956 0,-608 886,-1377 2254,-1956 334,-145 696,-272 1071,-391 221,758 510,1545 870,2355 -355,804 -642,1588 -859,2342 -381,-120 -745,-251 -1082,-394zm2081 5525c-526,-301 -754,-1450 -577,-2927 43,-363 113,-746 198,-1136 757,186 1585,328 2454,421 523,715 1064,1364 1609,1933 -1260,1172 -2443,1814 -3247,1814 -174,-5 -321,-39 -437,-105zm9171 -2946c182,1478 -43,2625 -565,2930 -115,70 -267,101 -444,101 -801,0 -1988,-637 -3249,-1801 543,-569 1084,-1214 1597,-1930 874,-93 1702,-236 2460,-425 88,391 158,766 201,1125zm1489 -2579c-334,143 -696,271 -1072,391 -220,-758 -510,-1547 -869,-2355 355,-804 642,-1589 859,-2344 381,121 745,251 1085,396 1368,582 2255,1348 2255,1956 -5,606 -890,1376 -2258,1956z"/>
   <line class="fil2" x1="6569" y1="1769" x2="6569" y2= "1769" />
   <circle class="fil1" cx="10439" cy="10202" r="1767"/>
   <line class="fil2" x1="14291" y1="1757" x2="14291" y2= "1757" />
  </g>
 </g>
</svg>
